<svg id="visual" viewBox="0 0 900 600" width="900" height="600" xmlns="http://www.w3.org/2000/svg" xmlns:xlink="http://www.w3.org/1999/xlink" version="1.1"><rect x="0" y="0" width="900" height="600" fill="#272b33"></rect><path d="M0 439L7.5 439.7C15 440.3 30 441.7 45 436.5C60 431.3 75 419.7 90 412.8C105 406 120 404 135 408.8C150 413.7 165 425.3 180 428.8C195 432.3 210 427.7 225 427.7C240 427.7 255 432.3 270 435.8C285 439.3 300 441.7 315 436.3C330 431 345 418 360 411.3C375 404.7 390 404.3 405 409.2C420 414 435 424 450 422.7C465 421.3 480 408.7 495 411.2C510 413.7 525 431.3 540 437.8C555 444.3 570 439.7 585 438.3C600 437 615 439 630 439.2C645 439.3 660 437.7 675 439C690 440.3 705 444.7 720 443C735 441.3 750 433.7 765 428.7C780 423.7 795 421.3 810 425.7C825 430 840 441 855 436.3C870 431.7 885 411.3 892.5 401.2L900 391L900 601L892.5 601C885 601 870 601 855 601C840 601 825 601 810 601C795 601 780 601 765 601C750 601 735 601 720 601C705 601 690 601 675 601C660 601 645 601 630 601C615 601 600 601 585 601C570 601 555 601 540 601C525 601 510 601 495 601C480 601 465 601 450 601C435 601 420 601 405 601C390 601 375 601 360 601C345 601 330 601 315 601C300 601 285 601 270 601C255 601 240 601 225 601C210 601 195 601 180 601C165 601 150 601 135 601C120 601 105 601 90 601C75 601 60 601 45 601C30 601 15 601 7.5 601L0 601Z" fill="#001122" stroke-linecap="round" stroke-linejoin="miter"></path></svg>